<?xml version="1.0" encoding="UTF-8"?>
<svg width="841.474349px" height="5px" viewBox="0 0 841.474349 5" version="1.1" xmlns="http://www.w3.org/2000/svg" xmlns:xlink="http://www.w3.org/1999/xlink">
    <title>waves-divider</title>
    <g id="Page-1" stroke="none" stroke-width="1" fill="none" fill-rule="evenodd">
        <g id="Manage" transform="translate(-427.5257, -425)" fill="#DDDDDD" fill-rule="nonzero">
            <g id="waves-divider" transform="translate(427.5257, 425)">
                <path d="M84.2111486,5 C81.3699486,5 80.0006486,3.8984 78.6314486,2.8984 C77.3690486,1.8984 76.1067486,1 73.6848486,1 C71.2629486,1 70.0006486,1.89844 68.7383486,2.8984 C67.3690486,3.8984 65.9998486,5 63.1585486,5 C60.3172486,5 58.9480486,3.8984 57.5787486,2.8984 C56.3164486,1.8984 55.0541486,1 52.6322486,1 C50.2103486,1 48.9480486,1.89844 47.6857486,2.8984 C46.3164486,3.8984 44.9471486,5 42.1059486,5 C39.2646486,5 37.8954486,3.8984 36.5261486,2.8984 C35.2638486,1.8984 34.0015486,1 31.5796486,1 C29.1577486,1 27.8954486,1.89844 26.6330486,2.8984 C25.2638486,3.8984 23.8945486,5 21.0532486,5 C18.2120486,5 16.8427486,3.8984 15.4735486,2.8984 C14.2111486,1.8984 12.9488486,1 10.5269486,1 C8.10504862,1 6.84274862,1.89844 5.58044862,2.8984 C4.21114862,3.8984 2.85695316,5 0,5 C0,5 0,4 0,4 C2.42254862,4 3.68484862,3.10156 4.94714862,2.1016 C6.31644862,1.1016 7.68574862,0 10.5269486,0 C13.3682486,0 14.7375486,1.1016 16.1067486,2.1016 C17.3690486,3.1016 18.6314486,4 21.0532486,4 C23.4751486,4 24.7375486,3.10156 25.9998486,2.1016 C27.3690486,1.1016 28.7383486,0 31.5796486,0 C34.4208486,0 35.7901486,1.1016 37.1594486,2.1016 C38.4217486,3.1016 39.6840486,4 42.1059486,4 C44.5278486,4 45.7901486,3.10156 47.0524486,2.1016 C48.4217486,1.1016 49.7909486,0 52.6322486,0 C55.4735486,0 56.8427486,1.1016 58.2120486,2.1016 C59.4743486,3.1016 60.7366486,4 63.1585486,4 C65.5804486,4 66.8427486,3.10156 68.1050486,2.1016 C69.4743486,1.1016 70.8436486,0 73.6848486,0 C76.5261486,0 77.8953486,1.1016 79.2646486,2.1016 C80.5269486,3.1016 81.7892486,4 84.2111486,4 L84.2111486,5 Z" id="Path"></path>
                <path d="M420.421349,5 C417.580349,5 416.211349,3.8984 414.842349,2.8984 C413.579349,1.8984 412.317349,1 409.895349,1 C407.473349,1 406.211349,1.89844 404.949349,2.8984 C403.579349,3.8984 402.210349,5 399.369349,5 C396.527349,5 395.158349,3.8984 393.789349,2.8984 C392.527349,1.8984 391.264349,1 388.842349,1 C386.421349,1 385.158349,1.89844 383.896349,2.8984 C382.527349,3.8984 381.157349,5 378.316349,5 C375.475349,5 374.106349,3.8984 372.736349,2.8984 C371.474349,1.8984 370.212349,1 367.790349,1 C365.368349,1 364.106349,1.89844 362.843349,2.8984 C361.474349,3.8984 360.105349,5 357.263349,5 C354.422349,5 353.053349,3.8984 351.684349,2.8984 C350.421349,1.8984 349.159349,1 346.737349,1 C344.315349,1 343.053349,1.89844 341.791349,2.8984 C340.421749,3.8984 339.052449,5 336.211149,5 C333.369949,5 332.000649,3.8984 330.631449,2.8984 C329.369049,1.8984 328.106749,1 325.684849,1 L325.684849,0 C328.526149,0 329.895349,1.1016 331.264649,2.1016 C332.526949,3.1016 333.789249,4 336.211149,4 C338.633049,4 339.895449,3.10156 341.157749,2.1016 C342.527349,1.1016 343.896349,0 346.737349,0 C349.578349,0 350.948349,1.1016 352.317349,2.1016 C353.579349,3.1016 354.842349,4 357.263349,4 C359.685349,4 360.948349,3.10156 362.210349,2.1016 C363.579349,1.1016 364.949349,0 367.790349,0 C370.631349,0 372.000349,1.1016 373.370349,2.1016 C374.632349,3.1016 375.894349,4 378.316349,4 C380.738349,4 382.000349,3.10156 383.263349,2.1016 C384.632349,1.1016 386.001349,0 388.842349,0 C391.684349,0 393.053349,1.1016 394.422349,2.1016 C395.685349,3.1016 396.947349,4 399.369349,4 C401.791349,4 403.053349,3.10156 404.315349,2.1016 C405.685349,1.1016 407.054349,0 409.895349,0 C412.736349,0 414.106349,1.1016 415.475349,2.1016 C416.737349,3.1016 417.999349,4 420.421349,4 L420.421349,5 Z" id="Path"></path>
                <path d="M336.421349,5 C333.580349,5 332.211349,3.8984 330.842349,2.8984 C329.579349,1.8984 328.317349,1 325.895349,1 C323.473349,1 322.211349,1.89844 320.949349,2.8984 C319.579349,3.8984 318.210349,5 315.369349,5 C312.527349,5 311.158349,3.8984 309.789349,2.8984 C308.527349,1.8984 307.264349,1 304.842349,1 C302.421349,1 301.158349,1.89844 299.896349,2.8984 C298.527349,3.8984 297.157349,5 294.316349,5 C291.475349,5 290.106349,3.8984 288.736349,2.8984 C287.474349,1.8984 286.212349,1 283.790349,1 C281.368349,1 280.106349,1.89844 278.843349,2.8984 C277.474349,3.8984 276.105349,5 273.263349,5 C270.422349,5 269.053349,3.8984 267.684349,2.8984 C266.421349,1.8984 265.159349,1 262.737349,1 C260.315349,1 259.053349,1.89844 257.791349,2.8984 C256.421749,3.8984 255.052449,5 252.211149,5 C249.369949,5 248.000649,3.8984 246.631449,2.8984 C245.369049,1.8984 244.106749,1 241.684849,1 L241.684849,0 C244.526149,0 245.895349,1.1016 247.264649,2.1016 C248.526949,3.1016 249.789249,4 252.211149,4 C254.633049,4 255.895449,3.10156 257.157749,2.1016 C258.527349,1.1016 259.896349,0 262.737349,0 C265.578349,0 266.948349,1.1016 268.317349,2.1016 C269.579349,3.1016 270.842349,4 273.263349,4 C275.685349,4 276.948349,3.10156 278.210349,2.1016 C279.579349,1.1016 280.949349,0 283.790349,0 C286.631349,0 288.000349,1.1016 289.370349,2.1016 C290.632349,3.1016 291.894349,4 294.316349,4 C296.738349,4 298.000349,3.10156 299.263349,2.1016 C300.632349,1.1016 302.001349,0 304.842349,0 C307.684349,0 309.053349,1.1016 310.422349,2.1016 C311.685349,3.1016 312.947349,4 315.369349,4 C317.791349,4 319.053349,3.10156 320.315349,2.1016 C321.685349,1.1016 323.054349,0 325.895349,0 C328.736349,0 330.106349,1.1016 331.475349,2.1016 C332.737349,3.1016 333.999349,4 336.421349,4 L336.421349,5 Z" id="Path"></path>
                <path d="M252.421349,5 C249.580349,5 248.211349,3.8984 246.842349,2.8984 C245.579349,1.8984 244.317349,1 241.895349,1 C239.473349,1 238.211349,1.89844 236.949349,2.8984 C235.579349,3.8984 234.210349,5 231.369349,5 C228.527349,5 227.158349,3.8984 225.789349,2.8984 C224.527349,1.8984 223.264349,1 220.842349,1 C218.421349,1 217.158349,1.89844 215.896349,2.8984 C214.527349,3.8984 213.157349,5 210.316349,5 C207.475349,5 206.106349,3.8984 204.736349,2.8984 C203.474349,1.8984 202.212349,1 199.790349,1 C197.368349,1 196.106349,1.89844 194.843349,2.8984 C193.474349,3.8984 192.105349,5 189.263349,5 C186.422349,5 185.053349,3.8984 183.684349,2.8984 C182.421349,1.8984 181.159349,1 178.737349,1 C176.315349,1 175.053349,1.89844 173.791349,2.8984 C172.421749,3.8984 171.052449,5 168.211149,5 C165.369949,5 164.000649,3.8984 162.631449,2.8984 C161.369049,1.8984 160.106749,1 157.684849,1 L157.684849,0 C160.526149,0 161.895349,1.1016 163.264649,2.1016 C164.526949,3.1016 165.789249,4 168.211149,4 C170.633049,4 171.895449,3.10156 173.157749,2.1016 C174.527349,1.1016 175.896349,0 178.737349,0 C181.578349,0 182.948349,1.1016 184.317349,2.1016 C185.579349,3.1016 186.842349,4 189.263349,4 C191.685349,4 192.948349,3.10156 194.210349,2.1016 C195.579349,1.1016 196.949349,0 199.790349,0 C202.631349,0 204.000349,1.1016 205.370349,2.1016 C206.632349,3.1016 207.894349,4 210.316349,4 C212.738349,4 214.000349,3.10156 215.263349,2.1016 C216.632349,1.1016 218.001349,0 220.842349,0 C223.684349,0 225.053349,1.1016 226.422349,2.1016 C227.685349,3.1016 228.947349,4 231.369349,4 C233.791349,4 235.053349,3.10156 236.315349,2.1016 C237.685349,1.1016 239.054349,0 241.895349,0 C244.736349,0 246.106349,1.1016 247.475349,2.1016 C248.737349,3.1016 249.999349,4 252.421349,4 L252.421349,5 Z" id="Path"></path>
                <path d="M168.421349,5 C165.580349,5 164.211349,3.8984 162.842349,2.8984 C161.579349,1.8984 160.317349,1 157.895349,1 C155.473349,1 154.211349,1.89844 152.949349,2.8984 C151.579349,3.8984 150.210349,5 147.369349,5 C144.527349,5 143.158349,3.8984 141.789349,2.8984 C140.527349,1.8984 139.264349,1 136.842349,1 C134.421349,1 133.158349,1.89844 131.896349,2.8984 C130.527349,3.8984 129.157349,5 126.316349,5 C123.475349,5 122.106349,3.8984 120.736349,2.8984 C119.474349,1.8984 118.212349,1 115.790349,1 C113.368349,1 112.106349,1.89844 110.843349,2.8984 C109.474349,3.8984 108.105349,5 105.263349,5 C102.422349,5 101.053349,3.8984 99.6843486,2.8984 C98.4213486,1.8984 97.1593486,1 94.7373486,1 C92.3153486,1 91.0533486,1.89844 89.7913486,2.8984 C88.4217486,3.8984 87.0524486,5 84.2111486,5 C81.3699486,5 80.0006486,3.8984 78.6314486,2.8984 C77.3690486,1.8984 76.1067486,1 73.6848486,1 L73.6848486,0 C76.5261486,0 77.8953486,1.1016 79.2646486,2.1016 C80.5269486,3.1016 81.7892486,4 84.2111486,4 C86.6330486,4 87.8954486,3.10156 89.1577486,2.1016 C90.5273486,1.1016 91.8963486,0 94.7373486,0 C97.5783486,0 98.9483486,1.1016 100.317349,2.1016 C101.579349,3.1016 102.842349,4 105.263349,4 C107.685349,4 108.948349,3.10156 110.210349,2.1016 C111.579349,1.1016 112.949349,0 115.790349,0 C118.631349,0 120.000349,1.1016 121.370349,2.1016 C122.632349,3.1016 123.894349,4 126.316349,4 C128.738349,4 130.000349,3.10156 131.263349,2.1016 C132.632349,1.1016 134.001349,0 136.842349,0 C139.684349,0 141.053349,1.1016 142.422349,2.1016 C143.685349,3.1016 144.947349,4 147.369349,4 C149.791349,4 151.053349,3.10156 152.315349,2.1016 C153.685349,1.1016 155.054349,0 157.895349,0 C160.736349,0 162.106349,1.1016 163.475349,2.1016 C164.737349,3.1016 165.999349,4 168.421349,4 L168.421349,5 Z" id="Path"></path>
                <path d="M504.632349,5 C501.791349,5 500.421349,3.8984 499.052349,2.8984 C497.790349,1.8984 496.527349,1 494.106349,1 C491.684349,1 490.421349,1.89844 489.159349,2.8984 C487.790349,3.8984 486.421349,5 483.579349,5 C480.738349,5 479.369349,3.8984 477.999349,2.8984 C476.737349,1.8984 475.475349,1 473.053349,1 C470.631349,1 469.369349,1.89844 468.106349,2.8984 C466.737349,3.8984 465.368349,5 462.527349,5 C459.685349,5 458.316349,3.8984 456.947349,2.8984 C455.685349,1.8984 454.422349,1 452.000349,1 C449.578349,1 448.316349,1.89844 447.054349,2.8984 C445.685349,3.8984 444.315349,5 441.474349,5 C438.633349,5 437.263349,3.8984 435.894349,2.8984 C434.632349,1.8984 433.370349,1 430.948349,1 C428.526349,1 427.263349,1.89844 426.001349,2.8984 C424.632349,3.8984 423.263349,5 420.421349,5 C417.580349,5 416.211349,3.8984 414.842349,2.8984 C413.579349,1.8984 412.317349,1 409.895349,1 L409.895349,0 C412.736349,0 414.106349,1.1016 415.475349,2.1016 C416.737349,3.1016 417.999349,4 420.421349,4 C422.843349,4 424.106349,3.10156 425.368349,2.1016 C426.737349,1.1016 428.106349,0 430.948349,0 C433.789349,0 435.158349,1.1016 436.527349,2.1016 C437.790349,3.1016 439.052349,4 441.474349,4 C443.896349,4 445.158349,3.10156 446.421349,2.1016 C447.790349,1.1016 449.159349,0 452.000349,0 C454.842349,0 456.211349,1.1016 457.580349,2.1016 C458.842349,3.1016 460.105349,4 462.527349,4 C464.949349,4 466.211349,3.10156 467.473349,2.1016 C468.842349,1.1016 470.212349,0 473.053349,0 C475.894349,0 477.263349,1.1016 478.633349,2.1016 C479.895349,3.1016 481.157349,4 483.579349,4 C486.001349,4 487.263349,3.10156 488.526349,2.1016 C489.895349,1.1016 491.264349,0 494.106349,0 C496.947349,0 498.316349,1.1016 499.685349,2.1016 C500.948349,3.1016 502.210349,4 504.632349,4 L504.632349,5 Z" id="Path"></path>
                <path d="M588.842349,5 C586.001349,5 584.632349,3.8984 583.263349,2.8984 C582.000349,1.8984 580.738349,1 578.316349,1 C575.894349,1 574.632349,1.89844 573.370349,2.8984 C572.000349,3.8984 570.631349,5 567.790349,5 C564.949349,5 563.579349,3.8984 562.210349,2.8984 C560.948349,1.8984 559.685349,1 557.263349,1 C554.842349,1 553.579349,1.89844 552.317349,2.8984 C550.948349,3.8984 549.578349,5 546.737349,5 C543.896349,5 542.527349,3.8984 541.157349,2.8984 C539.895349,1.8984 538.633349,1 536.211349,1 C533.789349,1 532.527349,1.89844 531.264349,2.8984 C529.895349,3.8984 528.526349,5 525.685349,5 C522.843349,5 521.474349,3.8984 520.105349,2.8984 C518.842349,1.8984 517.580349,1 515.158349,1 C512.736349,1 511.474349,1.89844 510.212349,2.8984 C508.842349,3.8984 507.473349,5 504.632349,5 C501.791349,5 500.421349,3.8984 499.052349,2.8984 C497.790349,1.8984 496.527349,1 494.106349,1 L494.106349,0 C496.947349,0 498.316349,1.1016 499.685349,2.1016 C500.948349,3.1016 502.210349,4 504.632349,4 C507.054349,4 508.316349,3.10156 509.578349,2.1016 C510.948349,1.1016 512.317349,0 515.158349,0 C517.999349,0 519.369349,1.1016 520.738349,2.1016 C522.000349,3.1016 523.263349,4 525.685349,4 C528.106349,4 529.369349,3.10156 530.631349,2.1016 C532.000349,1.1016 533.370349,0 536.211349,0 C539.052349,0 540.421349,1.1016 541.791349,2.1016 C543.053349,3.1016 544.315349,4 546.737349,4 C549.159349,4 550.421349,3.10156 551.684349,2.1016 C553.053349,1.1016 554.422349,0 557.263349,0 C560.105349,0 561.474349,1.1016 562.843349,2.1016 C564.106349,3.1016 565.368349,4 567.790349,4 C570.212349,4 571.474349,3.10156 572.736349,2.1016 C574.106349,1.1016 575.475349,0 578.316349,0 C581.157349,0 582.527349,1.1016 583.896349,2.1016 C585.158349,3.1016 586.421349,4 588.842349,4 L588.842349,5 Z" id="Path"></path>
                <path d="M673.053349,5 C670.212349,5 668.842349,3.8984 667.473349,2.8984 C666.211349,1.8984 664.949349,1 662.527349,1 C660.105349,1 658.842349,1.89844 657.580349,2.8984 C656.211349,3.8984 654.842349,5 652.000349,5 C649.159349,5 647.790349,3.8984 646.421349,2.8984 C645.158349,1.8984 643.896349,1 641.474349,1 C639.052349,1 637.790349,1.89844 636.527349,2.8984 C635.158349,3.8984 633.789349,5 630.948349,5 C628.106349,5 626.737349,3.8984 625.368349,2.8984 C624.106349,1.8984 622.843349,1 620.421349,1 C617.999349,1 616.737349,1.89844 615.475349,2.8984 C614.106349,3.8984 612.736349,5 609.895349,5 C607.054349,5 605.685349,3.8984 604.315349,2.8984 C603.053349,1.8984 601.791349,1 599.369349,1 C596.947349,1 595.685349,1.89844 594.422349,2.8984 C593.053349,3.8984 591.684349,5 588.842349,5 C586.001349,5 584.632349,3.8984 583.263349,2.8984 C582.000349,1.8984 580.738349,1 578.316349,1 L578.316349,0 C581.157349,0 582.527349,1.1016 583.896349,2.1016 C585.158349,3.1016 586.421349,4 588.842349,4 C591.264349,4 592.527349,3.10156 593.789349,2.1016 C595.158349,1.1016 596.527349,0 599.369349,0 C602.210349,0 603.579349,1.1016 604.949349,2.1016 C606.211349,3.1016 607.473349,4 609.895349,4 C612.317349,4 613.579349,3.10156 614.842349,2.1016 C616.211349,1.1016 617.580349,0 620.421349,0 C623.263349,0 624.632349,1.1016 626.001349,2.1016 C627.263349,3.1016 628.526349,4 630.948349,4 C633.370349,4 634.632349,3.10156 635.894349,2.1016 C637.263349,1.1016 638.633349,0 641.474349,0 C644.315349,0 645.685349,1.1016 647.054349,2.1016 C648.316349,3.1016 649.578349,4 652.000349,4 C654.422349,4 655.685349,3.10156 656.947349,2.1016 C658.316349,1.1016 659.685349,0 662.527349,0 C665.368349,0 666.737349,1.1016 668.106349,2.1016 C669.369349,3.1016 670.631349,4 673.053349,4 L673.053349,5 Z" id="Path"></path>
                <path d="M757.263349,5 C754.422349,5 753.053349,3.8984 751.684349,2.8984 C750.421349,1.8984 749.159349,1 746.737349,1 C744.315349,1 743.053349,1.89844 741.791349,2.8984 C740.421349,3.8984 739.052349,5 736.211349,5 C733.370349,5 732.000349,3.8984 730.631349,2.8984 C729.369349,1.8984 728.106349,1 725.685349,1 C723.263349,1 722.000349,1.89844 720.738349,2.8984 C719.369349,3.8984 717.999349,5 715.158349,5 C712.317349,5 710.948349,3.8984 709.578349,2.8984 C708.316349,1.8984 707.054349,1 704.632349,1 C702.210349,1 700.948349,1.89844 699.685349,2.8984 C698.316349,3.8984 696.947349,5 694.106349,5 C691.264349,5 689.895349,3.8984 688.526349,2.8984 C687.263349,1.8984 686.001349,1 683.579349,1 C681.157349,1 679.895349,1.89844 678.633349,2.8984 C677.263349,3.8984 675.894349,5 673.053349,5 C670.212349,5 668.842349,3.8984 667.473349,2.8984 C666.211349,1.8984 664.949349,1 662.527349,1 L662.527349,0 C665.368349,0 666.737349,1.1016 668.106349,2.1016 C669.369349,3.1016 670.631349,4 673.053349,4 C675.475349,4 676.737349,3.10156 677.999349,2.1016 C679.369349,1.1016 680.738349,0 683.579349,0 C686.421349,0 687.790349,1.1016 689.159349,2.1016 C690.421349,3.1016 691.684349,4 694.106349,4 C696.527349,4 697.790349,3.10156 699.052349,2.1016 C700.421349,1.1016 701.791349,0 704.632349,0 C707.473349,0 708.842349,1.1016 710.212349,2.1016 C711.474349,3.1016 712.736349,4 715.158349,4 C717.580349,4 718.842349,3.10156 720.105349,2.1016 C721.474349,1.1016 722.843349,0 725.685349,0 C728.526349,0 729.895349,1.1016 731.264349,2.1016 C732.527349,3.1016 733.789349,4 736.211349,4 C738.633349,4 739.895349,3.10156 741.157349,2.1016 C742.527349,1.1016 743.896349,0 746.737349,0 C749.578349,0 750.948349,1.1016 752.317349,2.1016 C753.579349,3.1016 754.842349,4 757.263349,4 L757.263349,5 Z" id="Path"></path>
                <path d="M841.474349,5 C838.633349,5 837.263349,3.8984 835.894349,2.8984 C834.632349,1.8984 833.370349,1 830.948349,1 C828.526349,1 827.263349,1.89844 826.001349,2.8984 C824.632349,3.8984 823.263349,5 820.421349,5 C817.580349,5 816.211349,3.8984 814.842349,2.8984 C813.579349,1.8984 812.317349,1 809.895349,1 C807.473349,1 806.211349,1.89844 804.949349,2.8984 C803.579349,3.8984 802.210349,5 799.369349,5 C796.527349,5 795.158349,3.8984 793.789349,2.8984 C792.527349,1.8984 791.264349,1 788.842349,1 C786.421349,1 785.158349,1.89844 783.896349,2.8984 C782.527349,3.8984 781.157349,5 778.316349,5 C775.475349,5 774.106349,3.8984 772.736349,2.8984 C771.474349,1.8984 770.212349,1 767.790349,1 C765.368349,1 764.106349,1.89844 762.843349,2.8984 C761.474349,3.8984 760.105349,5 757.263349,5 C754.422349,5 753.053349,3.8984 751.684349,2.8984 C750.421349,1.8984 749.159349,1 746.737349,1 L746.737349,0 C749.578349,0 750.948349,1.1016 752.317349,2.1016 C753.579349,3.1016 754.842349,4 757.263349,4 C759.685349,4 760.948349,3.10156 762.210349,2.1016 C763.579349,1.1016 764.949349,0 767.790349,0 C770.631349,0 772.000349,1.1016 773.370349,2.1016 C774.632349,3.1016 775.894349,4 778.316349,4 C780.738349,4 782.000349,3.10156 783.263349,2.1016 C784.632349,1.1016 786.001349,0 788.842349,0 C791.684349,0 793.053349,1.1016 794.422349,2.1016 C795.685349,3.1016 796.947349,4 799.369349,4 C801.791349,4 803.053349,3.10156 804.315349,2.1016 C805.685349,1.1016 807.054349,0 809.895349,0 C812.736349,0 814.106349,1.1016 815.475349,2.1016 C816.737349,3.1016 817.999349,4 820.421349,4 C822.843349,4 824.106349,3.10156 825.368349,2.1016 C826.737349,1.1016 828.106349,0 830.948349,0 C833.789349,0 835.158349,1.1016 836.527349,2.1016 C837.790349,3.1016 839.052349,4 841.474349,4 L841.474349,5 Z" id="Path"></path>
            </g>
        </g>
    </g>
</svg>